<?xml version="1.0" standalone="no"?>
<!DOCTYPE svg PUBLIC "-//W3C//DTD SVG 20010904//EN"
 "http://www.w3.org/TR/2001/REC-SVG-20010904/DTD/svg10.dtd">
<svg version="1.0" xmlns="http://www.w3.org/2000/svg"
 width="2400.000000pt" height="2460.000000pt" viewBox="0 0 2400.000000 2460.000000"
 preserveAspectRatio="xMidYMid meet">

<g transform="translate(0.000000,2460.000000) scale(0.100000,-0.100000)"
fill="#000000" stroke="none">
<path d="M12195 22550 c-665 -45 -1259 -136 -1890 -290 -569 -138 -1170 -337
-1710 -565 -1708 -719 -3236 -1845 -4379 -3225 -1146 -1383 -1880 -2989 -2130
-4660 -73 -482 -91 -751 -91 -1325 0 -485 3 -541 41 -890 58 -533 206 -1232
399 -1885 62 -210 307 -957 373 -1134 l29 -79 -5 339 c-24 1707 397 3897 1078
5599 245 613 551 1237 855 1740 111 184 364 565 485 730 489 666 1072 1259
1675 1706 597 442 1262 787 1965 1018 630 207 1296 330 2014 371 378 21 958
11 1361 -25 2306 -206 3925 -1275 4680 -3090 270 -649 419 -1380 456 -2235 39
-936 -150 -1784 -596 -2665 -407 -806 -1003 -1538 -1707 -2097 -837 -666
-1807 -1070 -2680 -1115 l-118 -6 0 46 c0 26 20 700 45 1499 25 799 44 1463
43 1476 -3 22 -689 -646 -5610 -5455 l-568 -555 137 -144 c214 -225 526 -518
798 -750 1087 -927 2373 -1640 3805 -2109 1118 -366 2333 -588 3660 -670 280
-17 923 -38 1032 -33 l78 3 -278 440 c-153 242 -522 826 -820 1297 -298 471
-542 861 -542 866 0 5 69 33 153 62 1913 660 3753 1791 5104 3138 1346 1341
2157 2830 2378 4365 51 355 59 493 59 937 0 420 -8 608 -45 980 -182 1866
-883 3577 -2044 4995 -1487 1816 -3674 3048 -5935 3345 -349 45 -461 52 -950
55 -261 2 -533 -1 -605 -5z"/>
</g>
</svg>
